<svg width="100" height="100" viewBox="0 0 100 100" fill="none" xmlns="http://www.w3.org/2000/svg">
<circle cx="50" cy="50" r="48" fill="#3C3744" stroke="#23F0C7" stroke-width="4"/>
<path d="M20.2756 63V36.8182H25.8111V58.4361H37.0355V63H20.2756ZM40.5991 63V43.3636H46.0451V63H40.5991ZM43.3349 40.8324C42.5252 40.8324 41.8306 40.5639 41.2511 40.027C40.68 39.4815 40.3945 38.8295 40.3945 38.071C40.3945 37.321 40.68 36.6776 41.2511 36.1406C41.8306 35.5952 42.5252 35.3224 43.3349 35.3224C44.1445 35.3224 44.8349 35.5952 45.4059 36.1406C45.9854 36.6776 46.2752 37.321 46.2752 38.071C46.2752 38.8295 45.9854 39.4815 45.4059 40.027C44.8349 40.5639 44.1445 40.8324 43.3349 40.8324ZM66.7457 48.9631L61.7599 49.2699C61.6747 48.8437 61.4915 48.4602 61.2102 48.1193C60.929 47.7699 60.5582 47.4929 60.098 47.2884C59.6463 47.0753 59.1051 46.9688 58.4744 46.9688C57.6307 46.9688 56.919 47.1477 56.3395 47.5057C55.7599 47.8551 55.4702 48.3239 55.4702 48.9119C55.4702 49.3807 55.6577 49.777 56.0327 50.1009C56.4077 50.4247 57.0511 50.6847 57.9631 50.8807L61.517 51.5966C63.4261 51.9886 64.8494 52.6193 65.7869 53.4886C66.7244 54.358 67.1932 55.5 67.1932 56.9148C67.1932 58.2017 66.8139 59.331 66.0554 60.3026C65.3054 61.2741 64.2741 62.0327 62.9616 62.5781C61.6577 63.1151 60.1534 63.3835 58.4489 63.3835C55.8494 63.3835 53.7784 62.8423 52.2358 61.7599C50.7017 60.669 49.8026 59.1861 49.5384 57.3111L54.8949 57.0298C55.0568 57.8224 55.4489 58.4276 56.071 58.8452C56.6932 59.2543 57.4901 59.4588 58.4616 59.4588C59.4162 59.4588 60.1832 59.2756 60.7628 58.9091C61.3509 58.5341 61.6491 58.0526 61.6577 57.4645C61.6491 56.9702 61.4403 56.5653 61.0312 56.25C60.6222 55.9261 59.9915 55.679 59.1392 55.5085L55.7386 54.831C53.821 54.4474 52.3935 53.7827 51.456 52.8366C50.527 51.8906 50.0625 50.6847 50.0625 49.2188C50.0625 47.9574 50.4034 46.8707 51.0852 45.9588C51.7756 45.0469 52.7429 44.3438 53.9872 43.8494C55.2401 43.3551 56.706 43.108 58.3849 43.108C60.8651 43.108 62.8168 43.6321 64.2401 44.6804C65.6719 45.7287 66.5071 47.1562 66.7457 48.9631ZM81.0671 43.3636V47.4545H69.2418V43.3636H81.0671ZM71.9265 38.6591H77.3725V56.9659C77.3725 57.4687 77.4492 57.8608 77.6026 58.142C77.756 58.4148 77.9691 58.6065 78.2418 58.7173C78.5231 58.8281 78.8469 58.8835 79.2134 58.8835C79.4691 58.8835 79.7248 58.8622 79.9805 58.8196C80.2362 58.7685 80.4322 58.7301 80.5685 58.7045L81.4251 62.7571C81.1523 62.8423 80.7688 62.9403 80.2745 63.0511C79.7802 63.1705 79.1793 63.2429 78.4719 63.2685C77.1594 63.3196 76.0089 63.1449 75.0202 62.7443C74.0401 62.3437 73.2773 61.7216 72.7319 60.8778C72.1864 60.0341 71.918 58.9687 71.9265 57.6818V38.6591Z" fill="#23F0C7"/>
</svg>
